# xmcd CD database file generated by Grip 3.3.1
# 
# Track frame offsets:
#       150
#       12504
#       24340
#       34719
#       46957
#       61495
#       74593
#       86948
#       100557
#       111993
#       126355
#       137588
#       148239
#       161210
#       172165
#       183292
#       195485
#       207682
#       218720
#       230699
#       243047
#       257867
#       269902
#       280432
#       290550
#       302813
#       313880
#       326609
#       338683
# 
# Disc length: 4696 seconds
# 
# Revision: 2
# Processed by: cddbd v1.5.2PL0 Copyright (c) Steve Scherf et al.
# Submitted via: Grip 3.3.1
# 
DISCID=d312561d
DTITLE=Various Artist - Ham Hocks And Cornbread - Disc 2
DYEAR=2005
DGENRE=Blues
TTITLE0=Tiny Bradshaw - Walk That Mess
TTITLE1=Sonny Thompson - The Fish Pt. 2
TTITLE2=Jackson Brothers - There's No Other Way
TTITLE3=Wild Bill Moore - Hey Spo-Dee-O-Dee
TTITLE4=Paul Williams - 35-30
TTITLE5=Harold Tinsley - Fan Your Fanny Blues
TTITLE6=Jimmy Witherspoon - Take Me Back Baby
TTITLE7=Rene Hall Sextette - Blue Creek Hop
TTITLE8=T.J. Fowler - Red Hot Blues
TTITLE9=Red Prysock - Red's Blues
TTITLE10=King Carl (Davis) - Sure Like To Run
TTITLE11=Jimmy Nelson - Right Around The Corner
TTITLE12=Cecil Payne - Ham Hocks
TTITLE13=Eddie Mack - How About That
TTITLE14=Pinocchio James - Your Mouth Got A Hole In It
TTITLE15=Joe Dyson Orchestra - Merc-O-Matic Boogie
TTITLE16=Freddie Mitchell - Moondog Boogie
TTITLE17=Roy Brown - Mighty Mighty Man
TTITLE18=Cousin Joe - Hole In The Ground
TTITLE19=Kid Tanner - Wino
TTITLE20=Eddie Chamblee - Walkin' Home
TTITLE21=Arbee Stidham - Stidham Jumps
TTITLE22=Little Eddie - My Baby Left Me
TTITLE23=Ike Carpenter Orchestra - Pachuko Hop
TTITLE24=Piney Brown - That's Right Baby
TTITLE25=Fats Noel - Rocket Flight
TTITLE26=Jimmy Crawford - Frank Motley - Heavy Weight Baby
TTITLE27=Buddy Banks - Bank's Boogie
TTITLE28=L.C. Williams - Louisiana Boogie
EXTD=
EXTT0=
EXTT1=
EXTT2=
EXTT3=
EXTT4=
EXTT5=
EXTT6=
EXTT7=
EXTT8=
EXTT9=
EXTT10=
EXTT11=
EXTT12=
EXTT13=
EXTT14=
EXTT15=
EXTT16=
EXTT17=
EXTT18=
EXTT19=
EXTT20=
EXTT21=
EXTT22=
EXTT23=
EXTT24=
EXTT25=
EXTT26=
EXTT27=
EXTT28=
PLAYORDER=
